<svg width="37" height="37" viewBox="0 0 37 37" fill="none" xmlns="http://www.w3.org/2000/svg">
<mask id="mask0_173_474" style="mask-type:alpha" maskUnits="userSpaceOnUse" x="0" y="0" width="37" height="37">
<rect width="36.75" height="36.75" fill="#D9D9D9"/>
</mask>
<g mask="url(#mask0_173_474)">
<path d="M28.9406 30.4336C26.2864 30.4336 23.6006 29.7573 20.8832 28.4047C18.1647 27.0521 15.7208 25.285 13.5515 23.1035C11.3823 20.921 9.6152 18.4771 8.25035 15.7719C6.88448 13.0667 6.20154 10.387 6.20154 7.73281C6.20154 7.27344 6.35466 6.89063 6.66091 6.58438C6.96716 6.27813 7.34998 6.125 7.80935 6.125H11.5609C12.0203 6.125 12.4031 6.2526 12.7094 6.50781C13.0156 6.76302 13.207 7.10755 13.2836 7.54141L14.0492 11.1781C14.1258 11.5865 14.1196 11.9499 14.0308 12.2684C13.941 12.5879 13.7685 12.8625 13.5133 13.0922L10.1828 16.2313C11.5354 18.5026 13.0733 20.4866 14.7964 22.1832C16.5186 23.8809 18.5281 25.3805 20.825 26.682L24.0789 23.3133C24.3341 23.0581 24.6215 22.8794 24.941 22.7773C25.2595 22.6753 25.5974 22.6625 25.9547 22.7391L29.1703 23.3898C29.5786 23.4919 29.9104 23.6961 30.1656 24.0023C30.4208 24.3086 30.5484 24.6786 30.5484 25.1125V28.8258C30.5484 29.2852 30.3953 29.668 30.089 29.9742C29.7828 30.2805 29.4 30.4336 28.9406 30.4336ZM9.41716 14.7766L12.3648 12.0969C12.4669 11.9948 12.5307 11.8799 12.5562 11.7523C12.5817 11.6247 12.5817 11.4971 12.5562 11.3695L11.8672 8.11563C11.8161 7.9625 11.7462 7.84766 11.6574 7.77109C11.5675 7.69453 11.4461 7.65625 11.2929 7.65625H8.15388C8.02628 7.65625 7.92419 7.69453 7.84763 7.77109C7.77107 7.84766 7.73279 7.94974 7.73279 8.07734C7.75831 9.1237 7.91807 10.2145 8.21207 11.3496C8.50505 12.4858 8.90675 13.6281 9.41716 14.7766ZM22.2414 27.3711C23.2877 27.8815 24.3979 28.2582 25.5719 28.5012C26.7458 28.7431 27.7666 28.8768 28.6344 28.9023C28.7364 28.9023 28.8258 28.8641 28.9023 28.7875C28.9789 28.7109 29.0172 28.6089 29.0172 28.4813V25.4188C29.0172 25.2656 28.9789 25.138 28.9023 25.0359C28.8258 24.9339 28.7109 24.8573 28.5578 24.8063L25.725 24.232C25.6229 24.2065 25.5274 24.2065 25.4386 24.232C25.3488 24.2576 25.2528 24.3214 25.1508 24.4234L22.2414 27.3711Z" fill="#1C1B1F"/>
</g>
</svg>
