<svg width="94" height="145" viewBox="0 0 94 145" fill="none" xmlns="http://www.w3.org/2000/svg">
<g clip-path="url(#clip0_205_849)">
<path d="M84.7423 145C84.7109 145 84.6796 145 84.642 145C83.6579 144.969 82.8306 144.492 82.2476 143.628C81.5456 142.575 81.7211 141.71 81.9969 141.171C82.8682 139.442 86.3093 138.583 89.1674 138.163C89.556 136.647 89.4558 135.011 88.5156 133.601C87.9452 132.749 87.0614 132.323 85.8768 132.323H85.8517C85.4882 134.334 84.5354 136.384 83.2693 138.038C81.0567 140.933 78.3866 141.986 76.2931 140.795C75.2777 140.219 74.7951 139.229 74.9706 138.094C75.3968 135.268 79.8909 131.583 84.0465 130.662C84.0653 130.662 84.0904 130.656 84.1092 130.65C84.1155 129.403 83.7833 128.275 82.9873 127.485C82.2602 126.758 81.2322 126.589 80.198 126.671C78.2738 130.249 74.1182 133.401 71.1158 133.401C69.7557 133.401 69.3984 132.624 69.3107 132.285C68.7089 130.036 73.9865 126.959 74.2122 126.827C75.8857 125.862 77.484 125.236 78.9319 124.954C79.5838 123.349 79.4772 122.09 78.5997 121.219C78.0544 120.674 76.9951 120.442 75.5911 120.529C74.3939 122.04 72.8207 123.462 71.26 124.621C68.3767 126.752 64.5721 128.676 62.5476 127.661C61.8268 127.303 61.4382 126.689 61.4695 125.981C61.576 123.719 66.4023 121.256 69.2354 120.166C70.4326 119.702 72.5073 118.994 74.5882 118.731C75.4908 117.44 75.9421 116.249 75.7917 115.36C75.6413 114.451 74.8139 113.762 73.3472 113.304C71.8304 112.828 70.3887 112.69 69.0725 112.74C67.0291 115.291 64.1459 117.484 61.3629 118.324C60.7926 118.493 59.0626 119.013 58.3042 117.948C58.0535 117.59 57.7589 116.82 58.6301 115.616C59.8962 113.874 63.563 111.424 68.101 110.948C69.1101 109.551 69.8058 108.084 69.9813 106.768C70.1631 105.415 69.7557 104.443 68.7403 103.81C68.101 103.409 67.1106 103.272 65.8758 103.391C62.9048 107.313 57.7714 110.848 54.1987 110.848C52.9514 110.848 52.1867 110.472 51.9234 109.726C51.5098 108.542 52.7508 107.376 53.7223 106.599C56.1104 104.688 60.8427 102.238 64.8542 101.611C65.5436 100.596 66.0451 99.5806 66.2645 98.6406C66.7095 96.7669 65.7881 96.0651 65.061 95.7016C63.8012 95.075 61.9459 95.0687 59.6205 95.6703C58.1162 96.9612 56.5805 98.1142 55.3896 98.9602C54.0859 99.8876 47.5171 104.481 45.7495 103.898C45.3233 103.754 45.0287 103.416 44.9598 102.983C44.8971 102.582 44.7655 101.743 48.0248 99.3613C50.4442 97.5941 54.65 95.1126 58.6865 93.9658C61.1373 91.8477 63.0365 89.7359 63.3311 88.2132C63.4314 87.6868 63.3373 87.292 62.5726 86.9474C60.6923 86.0951 57.9218 86.3207 55.0637 87.0351C51.0146 90.2686 46.2949 92.9945 43.6498 93.289C43.2173 93.3392 42.0703 93.4645 41.6503 92.606C41.4748 92.2425 41.4059 91.6597 42.1016 90.9391C43.3803 89.6169 48.7581 86.7343 54.1486 85.3306C57.364 82.705 60.0592 79.8286 60.5168 78.049C60.686 77.3847 60.4604 77.2218 60.335 77.1341C59.564 76.5889 57.7275 76.4949 55.3959 76.7267C50.1935 80.5556 43.7689 84.1525 39.6195 85.2742C37.3505 85.8883 35.84 85.7442 35.0063 84.8293C34.1852 83.9332 34.2479 82.7614 35.1818 81.7086C37.5699 79.0015 47.4732 75.7617 54.5748 74.9721C58.5486 72.0331 61.645 69.0942 61.996 67.4524C62.0587 67.1516 61.9835 67.0889 61.9271 67.0388C59.1566 64.7578 47.0595 67.6717 40.0833 70.0404C39.5945 70.2096 39.0554 69.9464 38.8924 69.4514C38.7232 68.9626 38.9865 68.4237 39.4816 68.2607C41.431 67.5965 58.6427 61.9003 63.1242 65.5849C63.7824 66.1239 64.0331 66.926 63.8388 67.8409C63.4564 69.6018 61.0934 72.1585 57.878 74.7904C59.4512 74.8217 60.6985 75.0724 61.4256 75.5862C61.9521 75.9622 62.7732 76.8333 62.3407 78.5064C61.8957 80.2234 60.147 82.4355 57.8341 84.6225C59.915 84.3969 61.8456 84.5348 63.3561 85.2178C65.0924 86.0011 65.669 87.5239 64.9419 89.385C64.4468 90.6446 63.3937 92.0107 62.1088 93.3392C63.5128 93.264 64.804 93.452 65.9135 94.0034C67.8628 94.981 68.64 96.7732 68.1072 99.0542C67.9255 99.8312 67.5933 100.64 67.142 101.454C68.1323 101.511 69.0286 101.736 69.7557 102.194C71.3979 103.215 72.1438 104.926 71.868 107C71.6987 108.241 71.1722 109.563 70.395 110.867C71.542 110.923 72.7267 111.123 73.9301 111.493C76.6692 112.352 77.4778 113.887 77.6658 115.034C77.8601 116.18 77.5279 117.415 76.8698 118.643C78.0795 118.737 79.1764 119.094 79.9536 119.871C81.1884 121.106 81.5456 122.823 81.0003 124.772C82.3542 124.841 83.495 125.292 84.3411 126.138C85.4882 127.285 85.9959 128.801 86.0272 130.437C87.7885 130.474 89.1988 131.195 90.0951 132.549C91.217 134.234 91.4615 136.127 91.1544 137.913C92.0005 137.831 92.6712 137.787 93.0285 137.775C93.5487 137.756 93.9875 138.151 94.0125 138.665C94.0376 139.185 93.6365 139.623 93.1225 139.648C92.2951 139.692 91.4364 139.761 90.5902 139.861C89.8506 141.679 88.5908 143.239 87.2369 144.141C86.397 144.699 85.5446 144.994 84.7548 144.994L84.7423 145ZM88.3275 140.206C85.9645 140.645 84.0465 141.284 83.6767 142.011C83.6454 142.074 83.5702 142.218 83.8146 142.575C84.0528 142.932 84.3349 143.101 84.7047 143.114C85.1372 143.133 85.6449 142.938 86.1839 142.575C86.9799 142.042 87.7446 141.203 88.3275 140.2V140.206ZM83.8397 132.649C80.4989 133.645 77.0954 136.622 76.8322 138.364C76.7758 138.74 76.8823 138.953 77.227 139.153C78.6749 139.981 80.5804 138.452 81.7776 136.891C82.724 135.657 83.4636 134.14 83.8397 132.649ZM77.5216 127.31C74.6384 128.406 72.1124 130.468 71.3665 131.502C73.2218 131.352 75.798 129.509 77.5216 127.31ZM63.3875 125.962H63.4C64.2211 126.382 67.0417 125.398 70.1568 123.099C71.0594 122.434 71.8742 121.739 72.5951 121.037C72.1312 121.162 71.6423 121.306 71.1472 121.469C66.7784 122.923 63.7385 125.142 63.3937 125.962H63.3875ZM66.1391 113.185C64.4656 113.636 63.1806 114.319 62.4536 114.764C61.2376 115.51 60.5356 116.206 60.1908 116.657C60.3538 116.625 60.5669 116.582 60.8239 116.5C62.6416 115.955 64.5408 114.714 66.1328 113.179L66.1391 113.185ZM53.9417 108.936C54.0169 108.936 54.1047 108.943 54.205 108.943C56.6745 108.943 60.241 106.718 62.8735 103.998C62.347 104.161 61.8017 104.349 61.2376 104.569C57.5458 105.997 54.7377 107.984 53.9417 108.936ZM51.4157 99.3425C51.1149 99.5242 50.8203 99.7122 50.5382 99.8939C50.8203 99.7184 51.1149 99.5304 51.4157 99.3425ZM48.1251 89.5229C47.2037 89.949 46.3701 90.3689 45.6681 90.7574C46.4265 90.4378 47.2601 90.0179 48.1251 89.5229ZM51.1274 77.3785C45.2042 78.5628 38.4098 80.9002 36.5984 82.9493C36.2286 83.3692 36.3226 83.4695 36.4041 83.5572C36.5796 83.7452 37.3443 83.9395 39.1369 83.4507C42.321 82.5922 46.9028 80.1545 51.1337 77.3722L51.1274 77.3785Z" fill="#333333"/>
<path d="M18.6094 23.9943C18.6094 23.9943 21.6055 52.2436 41.6628 54.7502C61.7202 57.2568 68.9784 41.835 68.9784 41.835C68.9784 41.835 63.6006 63.5233 42.603 63.2099C21.6055 62.8966 10.599 43.9969 18.6094 23.9943Z" fill="#B8B7B6"/>
<path d="M42.6031 64.1437C27.2216 64.1437 14.7108 51.6358 14.7108 36.2578C14.7108 20.8799 27.2216 8.37201 42.6031 8.37201C57.9845 8.37201 70.4953 20.8799 70.4953 36.2578C70.4953 51.6358 57.9845 64.1437 42.6031 64.1437ZM42.6031 10.252C28.2621 10.252 16.5912 21.9201 16.5912 36.2578C16.5912 50.5955 28.2621 62.2637 42.6031 62.2637C56.9441 62.2637 68.6149 50.5955 68.6149 36.2578C68.6149 21.9201 56.9441 10.252 42.6031 10.252Z" fill="#333333"/>
<path d="M33.7715 38.5639C26.3691 38.5639 20.3519 32.5481 20.3519 25.1474C20.3519 17.7467 26.3754 11.7309 33.7715 11.7309C41.1677 11.7309 47.1912 17.7529 47.1912 25.1474C47.1912 32.5418 41.1677 38.5639 33.7715 38.5639ZM33.7715 13.6108C27.4096 13.6108 22.2323 18.7869 22.2323 25.1474C22.2323 31.5079 27.4096 36.684 33.7715 36.684C40.1335 36.684 45.3108 31.5079 45.3108 25.1474C45.3108 18.7869 40.1335 13.6108 33.7715 13.6108Z" fill="#333333"/>
<path d="M56.7623 47.7568C49.3599 47.7568 43.3427 41.7347 43.3427 34.3403C43.3427 26.9459 49.3661 20.9238 56.7623 20.9238C64.1584 20.9238 70.1819 26.9459 70.1819 34.3403C70.1819 41.7347 64.1584 47.7568 56.7623 47.7568ZM56.7623 22.8037C50.4003 22.8037 45.223 27.9798 45.223 34.3403C45.223 40.7008 50.4003 45.8769 56.7623 45.8769C63.1242 45.8769 68.3015 40.7008 68.3015 34.3403C68.3015 27.9798 63.1242 22.8037 56.7623 22.8037Z" fill="#333333"/>
<path d="M23.4859 51.924C25.3898 51.924 26.9332 49.9601 26.9332 47.5375C26.9332 45.1149 25.3898 43.151 23.4859 43.151C21.5819 43.151 20.0385 45.1149 20.0385 47.5375C20.0385 49.9601 21.5819 51.924 23.4859 51.924Z" fill="#333333"/>
<path d="M33.2012 30.3047C35.7974 30.3047 37.9021 28.2005 37.9021 25.6048C37.9021 23.0092 35.7974 20.905 33.2012 20.905C30.6049 20.905 28.5002 23.0092 28.5002 25.6048C28.5002 28.2005 30.6049 30.3047 33.2012 30.3047Z" fill="#333333"/>
<path d="M57.0193 40.9577C59.6156 40.9577 61.7202 38.8535 61.7202 36.2578C61.7202 33.6622 59.6156 31.558 57.0193 31.558C54.423 31.558 52.3184 33.6622 52.3184 36.2578C52.3184 38.8535 54.423 40.9577 57.0193 40.9577Z" fill="#333333"/>
<path d="M79.5838 28.4247C79.5023 28.4247 79.4208 28.4122 79.333 28.3934C78.8316 28.2556 78.537 27.7417 78.6749 27.2404C80.386 20.9739 75.9734 16.437 75.7791 16.2427C75.4156 15.873 75.4156 15.2777 75.7791 14.9142C76.1489 14.5508 76.7381 14.5508 77.1079 14.9142C77.3273 15.1336 82.4858 20.3974 80.4863 27.7354C80.3735 28.1553 79.9912 28.431 79.5775 28.431L79.5838 28.4247Z" fill="#333333"/>
<path d="M84.5981 24.6648C84.5229 24.6648 84.4477 24.6586 84.3662 24.6398C83.8648 24.5145 83.5577 24.0006 83.683 23.4993C84.7674 19.1754 82.2289 17.026 82.1223 16.9383C81.7212 16.6124 81.6648 16.0171 81.9907 15.6161C82.3166 15.215 82.8995 15.1523 83.307 15.4719C83.4511 15.591 86.8985 18.4172 85.5133 23.9567C85.4067 24.3829 85.0244 24.6711 84.6044 24.6711L84.5981 24.6648Z" fill="#333333"/>
<path d="M7.17679 39.5916C6.81325 39.5916 6.46852 39.3785 6.31182 39.0214C6.18646 38.7331 3.34709 31.9402 7.91641 25.8618C8.2298 25.4482 8.81899 25.3604 9.23267 25.6738C9.64635 25.9871 9.72784 26.5761 9.42071 26.9897C5.51579 32.1784 7.93521 38.0313 8.04177 38.2756C8.24234 38.7519 8.02296 39.3033 7.5466 39.5101C7.42751 39.5603 7.30215 39.5853 7.17679 39.5853V39.5916Z" fill="#333333"/>
<path d="M1.58579 36.6902C1.25986 36.6902 0.946461 36.521 0.770959 36.2202C0.67694 36.0573 -1.47296 32.1533 1.86158 27.5224C2.16244 27.1025 2.75162 27.0085 3.17157 27.3093C3.59152 27.6101 3.69181 28.1992 3.38468 28.619C0.777227 32.241 2.33794 35.1675 2.40689 35.2928C2.6576 35.744 2.49464 36.3142 2.04335 36.5712C1.89918 36.6526 1.73622 36.6902 1.58579 36.6902Z" fill="#333333"/>
<path d="M71.868 40.519C77.5404 25.8806 70.7146 9.24305 56.1856 2.90138C41.6628 -3.44029 24.8084 2.85751 17.9325 16.9696L71.868 40.519Z" fill="#FB8F28"/>
<path d="M75.0241 41.2147L15.8596 15.3847L14.3546 18.8303L73.5191 44.6604L75.0241 41.2147Z" fill="#FB8F28"/>
<path d="M57.3139 24.5959L60.9994 3.63456L56.9754 1.87994L56.6933 1.75461L52.6693 0L39.795 16.9446L15.8578 15.3842L45.1541 28.1741L45.4424 28.2994L74.7324 41.0893L57.3139 24.5959Z" fill="#FFB765"/>
<path d="M72.4258 40.118C72.3256 40.0741 72.2253 40.0115 72.1438 39.93L56.3862 24.4643L60.0718 3.4779C60.1595 2.96405 60.6484 2.62566 61.1624 2.71339C61.6764 2.80738 62.0148 3.2899 61.9271 3.80375L58.4108 23.8126L73.46 38.589C73.8299 38.9524 73.8361 39.5477 73.4726 39.9175C73.1905 40.2057 72.7706 40.2684 72.4258 40.118Z" fill="#333333"/>
<path d="M23.0722 16.7378C22.7212 16.5811 22.483 16.2239 22.5081 15.8166C22.5394 15.2965 22.9907 14.9079 23.5047 14.9393L39.35 15.9732L50.3314 1.52275C50.6448 1.10916 51.234 1.0277 51.6477 1.34102C52.0613 1.65435 52.1428 2.24339 51.8294 2.65698L40.24 17.9096L23.3856 16.813C23.2728 16.8067 23.1662 16.7816 23.0722 16.7378Z" fill="#FFDFCA"/>
<path d="M24.3258 10.8723C24.2193 10.8222 24.1127 10.7533 24.0249 10.6655C23.6614 10.2896 23.6739 9.7005 24.05 9.33705C32.4992 1.17183 42.8977 0.820905 43.3364 0.808372C43.8566 0.795839 44.2829 1.20316 44.3017 1.72328C44.3142 2.24339 43.9068 2.67578 43.3866 2.68831C43.2863 2.68831 33.2639 3.0455 25.36 10.6906C25.078 10.9663 24.6705 11.0227 24.3321 10.8786L24.3258 10.8723Z" fill="#FFDFCA"/>
</g>
<defs>
<clipPath id="clip0_205_849">
<rect width="94" height="145" fill="white"/>
</clipPath>
</defs>
</svg>
