<svg width="25" height="25" viewBox="0 0 25 25" fill="none" xmlns="http://www.w3.org/2000/svg">
<mask id="mask0_17_2145" style="mask-type:alpha" maskUnits="userSpaceOnUse" x="0" y="0" width="25" height="25">
<rect width="24.521" height="25" fill="#D9D9D9"/>
</mask>
<g mask="url(#mask0_17_2145)">
<path d="M11.2389 17.7084H13.2823V11.4584H11.2389V17.7084ZM12.2606 9.37504C12.55 9.37504 12.7929 9.27504 12.989 9.07504C13.1845 8.87574 13.2823 8.62851 13.2823 8.33337C13.2823 8.03824 13.1845 7.79067 12.989 7.59067C12.7929 7.39136 12.55 7.29171 12.2606 7.29171C11.9711 7.29171 11.7286 7.39136 11.5331 7.59067C11.3369 7.79067 11.2389 8.03824 11.2389 8.33337C11.2389 8.62851 11.3369 8.87574 11.5331 9.07504C11.7286 9.27504 11.9711 9.37504 12.2606 9.37504ZM12.2606 22.9167C10.8472 22.9167 9.51898 22.6431 8.2759 22.0959C7.03283 21.5493 5.95152 20.8073 5.03198 19.8698C4.11245 18.9323 3.38465 17.8299 2.84859 16.5625C2.31186 15.2952 2.04349 13.941 2.04349 12.5C2.04349 11.0591 2.31186 9.7049 2.84859 8.43754C3.38465 7.17018 4.11245 6.06775 5.03198 5.13025C5.95152 4.19275 7.03283 3.45039 8.2759 2.90317C9.51898 2.35664 10.8472 2.08337 12.2606 2.08337C13.6739 2.08337 15.0021 2.35664 16.2452 2.90317C17.4883 3.45039 18.5696 4.19275 19.4891 5.13025C20.4087 6.06775 21.1365 7.17018 21.6725 8.43754C22.2093 9.7049 22.4776 11.0591 22.4776 12.5C22.4776 13.941 22.2093 15.2952 21.6725 16.5625C21.1365 17.8299 20.4087 18.9323 19.4891 19.8698C18.5696 20.8073 17.4883 21.5493 16.2452 22.0959C15.0021 22.6431 13.6739 22.9167 12.2606 22.9167ZM12.2606 20.8334C14.5424 20.8334 16.4751 20.0261 18.0588 18.4115C19.6424 16.7969 20.4342 14.8264 20.4342 12.5C20.4342 10.1737 19.6424 8.20317 18.0588 6.58858C16.4751 4.974 14.5424 4.16671 12.2606 4.16671C9.97875 4.16671 8.04602 4.974 6.46237 6.58858C4.87873 8.20317 4.0869 10.1737 4.0869 12.5C4.0869 14.8264 4.87873 16.7969 6.46237 18.4115C8.04602 20.0261 9.97875 20.8334 12.2606 20.8334Z" fill="#FB8F28"/>
</g>
</svg>
