<svg width="30" height="30" viewBox="0 0 30 30" fill="none" xmlns="http://www.w3.org/2000/svg">
<mask id="mask0_205_1085" style="mask-type:alpha" maskUnits="userSpaceOnUse" x="0" y="0" width="30" height="30">
<rect width="30" height="30" fill="#D9D9D9"/>
</mask>
<g mask="url(#mask0_205_1085)">
<path d="M8.75 26.25L7 24.5L8.96875 22.4375C6.78125 22.1875 4.94792 21.2396 3.46875 19.5938C1.98958 17.9479 1.25 16 1.25 13.75C1.25 11.3125 2.09917 9.24458 3.7975 7.54625C5.495 5.84875 7.5625 5 10 5H13.75V7.5H10C8.27083 7.5 6.79708 8.10917 5.57875 9.3275C4.35958 10.5467 3.75 12.0208 3.75 13.75C3.75 15.2917 4.23417 16.625 5.2025 17.75C6.17167 18.875 7.38542 19.5833 8.84375 19.875L7 18.0312L8.75 16.25L13.75 21.25L8.75 26.25ZM16.25 25V16.25H27.5V25H16.25ZM16.25 13.75V5H27.5V13.75H16.25ZM18.75 11.25H25V7.5H18.75V11.25Z" fill="white"/>
</g>
</svg>
