<svg width="16" height="16" viewBox="0 0 16 16" fill="none" xmlns="http://www.w3.org/2000/svg">
<circle cx="8" cy="8" r="7.5" stroke="white"/>
<path d="M7.69583 12.25V11.2646C7.29097 11.1729 6.94157 10.9972 6.64763 10.7375C6.35338 10.4778 6.1375 10.1111 6 9.6375L6.84792 9.29375C6.9625 9.66042 7.13254 9.93924 7.35804 10.1302C7.58324 10.3212 7.87917 10.4167 8.24583 10.4167C8.55903 10.4167 8.82456 10.3461 9.04242 10.2049C9.25997 10.0634 9.36875 9.84375 9.36875 9.54583C9.36875 9.27847 9.28472 9.06642 9.11667 8.90967C8.94861 8.75322 8.55903 8.57569 7.94792 8.37708C7.29097 8.17083 6.84028 7.92456 6.59583 7.63825C6.35139 7.35164 6.22917 7.00208 6.22917 6.58958C6.22917 6.09306 6.38958 5.70729 6.71042 5.43229C7.03125 5.15729 7.35972 5.00069 7.69583 4.9625V4H8.6125V4.9625C8.99444 5.02361 9.30963 5.16294 9.55804 5.3805C9.80615 5.59836 9.9875 5.86389 10.1021 6.17708L9.25417 6.54375C9.1625 6.29931 9.03264 6.11597 8.86458 5.99375C8.69653 5.87153 8.46736 5.81042 8.17708 5.81042C7.84097 5.81042 7.58507 5.88497 7.40937 6.03408C7.23368 6.18289 7.14583 6.36806 7.14583 6.58958C7.14583 6.84167 7.26042 7.04028 7.48958 7.18542C7.71875 7.33056 8.11597 7.48333 8.68125 7.64375C9.20833 7.79653 9.60754 8.03899 9.87888 8.37112C10.1499 8.70357 10.2854 9.0875 10.2854 9.52292C10.2854 10.0653 10.125 10.4778 9.80417 10.7604C9.48333 11.0431 9.08611 11.2187 8.6125 11.2875V12.25H7.69583Z" fill="white"/>
</svg>
