<svg width="18" height="18" viewBox="0 0 18 18" fill="none" xmlns="http://www.w3.org/2000/svg">
<circle cx="9" cy="9" r="7.5" stroke="#D9D9D9"/>
<path d="M8.69583 13.25V12.2646C8.29097 12.1729 7.94157 11.9972 7.64763 11.7375C7.35338 11.4778 7.1375 11.1111 7 10.6375L7.84792 10.2938C7.9625 10.6604 8.13254 10.9392 8.35804 11.1302C8.58324 11.3212 8.87917 11.4167 9.24583 11.4167C9.55903 11.4167 9.82456 11.3461 10.0424 11.2049C10.26 11.0634 10.3688 10.8438 10.3688 10.5458C10.3688 10.2785 10.2847 10.0664 10.1167 9.90967C9.94861 9.75322 9.55903 9.57569 8.94792 9.37708C8.29097 9.17083 7.84028 8.92456 7.59583 8.63825C7.35139 8.35164 7.22917 8.00208 7.22917 7.58958C7.22917 7.09306 7.38958 6.70729 7.71042 6.43229C8.03125 6.15729 8.35972 6.00069 8.69583 5.9625V5H9.6125V5.9625C9.99444 6.02361 10.3096 6.16294 10.558 6.3805C10.8062 6.59836 10.9875 6.86389 11.1021 7.17708L10.2542 7.54375C10.1625 7.29931 10.0326 7.11597 9.86458 6.99375C9.69653 6.87153 9.46736 6.81042 9.17708 6.81042C8.84097 6.81042 8.58507 6.88497 8.40937 7.03408C8.23368 7.18289 8.14583 7.36806 8.14583 7.58958C8.14583 7.84167 8.26042 8.04028 8.48958 8.18542C8.71875 8.33056 9.11597 8.48333 9.68125 8.64375C10.2083 8.79653 10.6075 9.03899 10.8789 9.37112C11.1499 9.70357 11.2854 10.0875 11.2854 10.5229C11.2854 11.0653 11.125 11.4778 10.8042 11.7604C10.4833 12.0431 10.0861 12.2188 9.6125 12.2875V13.25H8.69583Z" fill="#D9D9D9"/>
<path d="M17 1L1 17" stroke="#DADADA"/>
</svg>
