<svg width="30" height="30" viewBox="0 0 30 30" fill="none" xmlns="http://www.w3.org/2000/svg">
<mask id="mask0_205_846" style="mask-type:alpha" maskUnits="userSpaceOnUse" x="0" y="0" width="30" height="30">
<rect width="30" height="30" fill="#D9D9D9"/>
</mask>
<g mask="url(#mask0_205_846)">
<path d="M15.0938 23.75C12.6562 23.75 10.5888 22.9008 8.89125 21.2025C7.19292 19.505 6.34375 17.4375 6.34375 15C6.34375 12.5625 7.19292 10.4946 8.89125 8.79625C10.5888 7.09875 12.6562 6.25 15.0938 6.25C16.5729 6.25 17.9637 6.60417 19.2663 7.3125C20.5679 8.02083 21.6146 9 22.4062 10.25V6.25H23.6562V12.7813H17.125V11.5313H21.75C21.0833 10.2813 20.1617 9.29667 18.985 8.5775C17.8075 7.85917 16.5104 7.5 15.0938 7.5C13.0104 7.5 11.2396 8.22917 9.78125 9.6875C8.32292 11.1458 7.59375 12.9167 7.59375 15C7.59375 17.0833 8.32292 18.8542 9.78125 20.3125C11.2396 21.7708 13.0104 22.5 15.0938 22.5C16.6979 22.5 18.1458 22.0417 19.4375 21.125C20.7292 20.2083 21.6354 19 22.1563 17.5H23.5C22.9375 19.375 21.8854 20.8854 20.3438 22.0312C18.8021 23.1771 17.0521 23.75 15.0938 23.75Z" fill="#666666"/>
</g>
</svg>
