<svg width="37" height="37" viewBox="0 0 37 37" fill="none" xmlns="http://www.w3.org/2000/svg">
<mask id="mask0_173_477" style="mask-type:alpha" maskUnits="userSpaceOnUse" x="0" y="0" width="37" height="37">
<rect width="36.75" height="36.75" fill="#D9D9D9"/>
</mask>
<g mask="url(#mask0_173_477)">
<path d="M12.25 16.4992C12.5563 16.4992 12.8309 16.3777 13.0738 16.1348C13.3158 15.8928 13.4367 15.6187 13.4367 15.3125C13.4367 15.0063 13.3158 14.7316 13.0738 14.4887C12.8309 14.2467 12.5563 14.1258 12.25 14.1258C11.9437 14.1258 11.6697 14.2467 11.4277 14.4887C11.1848 14.7316 11.0633 15.0063 11.0633 15.3125C11.0633 15.6187 11.1848 15.8928 11.4277 16.1348C11.6697 16.3777 11.9437 16.4992 12.25 16.4992ZM18.375 16.4992C18.6812 16.4992 18.9559 16.3777 19.1988 16.1348C19.4408 15.8928 19.5617 15.6187 19.5617 15.3125C19.5617 15.0063 19.4408 14.7316 19.1988 14.4887C18.9559 14.2467 18.6812 14.1258 18.375 14.1258C18.0688 14.1258 17.7947 14.2467 17.5527 14.4887C17.3098 14.7316 17.1883 15.0063 17.1883 15.3125C17.1883 15.6187 17.3098 15.8928 17.5527 16.1348C17.7947 16.3777 18.0688 16.4992 18.375 16.4992ZM24.5 16.4992C24.8062 16.4992 25.0809 16.3777 25.3238 16.1348C25.5658 15.8928 25.6867 15.6187 25.6867 15.3125C25.6867 15.0063 25.5658 14.7316 25.3238 14.4887C25.0809 14.2467 24.8062 14.1258 24.5 14.1258C24.1938 14.1258 23.9197 14.2467 23.6777 14.4887C23.4348 14.7316 23.3133 15.0063 23.3133 15.3125C23.3133 15.6187 23.4348 15.8928 23.6777 16.1348C23.9197 16.3777 24.1938 16.4992 24.5 16.4992ZM4.59375 30.7398V7.08203C4.59375 6.36745 4.83007 5.77383 5.30272 5.30119C5.77434 4.82956 6.36745 4.59375 7.08203 4.59375H29.668C30.3826 4.59375 30.9762 4.82956 31.4488 5.30119C31.9204 5.77383 32.1562 6.36745 32.1562 7.08203V23.543C32.1562 24.2576 31.9204 24.8512 31.4488 25.3238C30.9762 25.7954 30.3826 26.0312 29.668 26.0312H9.30234L4.59375 30.7398ZM6.125 27.0266L8.65156 24.5H29.668C29.9487 24.5 30.1784 24.4107 30.357 24.232C30.5357 24.0534 30.625 23.8237 30.625 23.543V7.08203C30.625 6.8013 30.5357 6.57161 30.357 6.39297C30.1784 6.21432 29.9487 6.125 29.668 6.125H7.08203C6.8013 6.125 6.57161 6.21432 6.39297 6.39297C6.21432 6.57161 6.125 6.8013 6.125 7.08203V27.0266ZM6.125 7.08203V6.125V27.0266V7.08203Z" fill="#1C1B1F"/>
</g>
</svg>
